<?xml version="1.0" encoding="UTF-8" standalone="no"?>
<svg xmlns="http://www.w3.org/2000/svg" contentScriptType="application/ecmascript" contentStyleType="text/css"
     height="932px" preserveAspectRatio="none" style="width:517px;height:932px;" version="1.1" viewBox="0 0 517 932"
     width="517px" zoomAndPan="magnify"><defs><filter height="300%" id="f8rgp769gwg5a" width="300%" x="-1" y="-1"><feGaussianBlur result="blurOut" stdDeviation="2.0"/><feColorMatrix in="blurOut" result="blurOut2" type="matrix" values="0 0 0 0 0 0 0 0 0 0 0 0 0 0 0 0 0 0 .4 0"/><feOffset dx="4.0" dy="4.0" in="blurOut2" result="blurOut3"/><feBlend in="SourceGraphic" in2="blurOut3" mode="normal"/></filter></defs><g><rect fill="#FFFFFF" filter="url(#f8rgp769gwg5a)" height="58.3516" style="stroke: #FFFFFF; stroke-width: 1.0;" width="10" x="36.5" y="49.6094"/><line style="stroke: #A80036; stroke-width: 1.0;" x1="36.5" x2="36.5" y1="49.6094" y2="107.9609"/><line style="stroke: #A80036; stroke-width: 1.0;" x1="46.5" x2="46.5" y1="49.6094" y2="107.9609"/><line style="stroke: #A80036; stroke-width: 1.0;" x1="36.5" x2="46.5" y1="49.6094" y2="49.6094"/><rect fill="#FFFFFF" filter="url(#f8rgp769gwg5a)" height="91.0547" style="stroke: #FFFFFF; stroke-width: 1.0;" width="10" x="36.5" y="135.9609"/><line style="stroke: #A80036; stroke-width: 1.0;" x1="36.5" x2="36.5" y1="135.9609" y2="227.0156"/><line style="stroke: #A80036; stroke-width: 1.0;" x1="46.5" x2="46.5" y1="135.9609" y2="227.0156"/><rect fill="#FFFFFF" filter="url(#f8rgp769gwg5a)" height="121.4063" style="stroke: #FFFFFF; stroke-width: 1.0;" width="10" x="36.5" y="255.0156"/><line style="stroke: #A80036; stroke-width: 1.0;" x1="36.5" x2="36.5" y1="255.0156" y2="376.4219"/><line style="stroke: #A80036; stroke-width: 1.0;" x1="46.5" x2="46.5" y1="255.0156" y2="376.4219"/><rect fill="#FFFFFF" filter="url(#f8rgp769gwg5a)" height="60.7031" style="stroke: #FFFFFF; stroke-width: 1.0;" width="10" x="36.5" y="404.4219"/><line style="stroke: #A80036; stroke-width: 1.0;" x1="36.5" x2="36.5" y1="404.4219" y2="465.125"/><line style="stroke: #A80036; stroke-width: 1.0;" x1="46.5" x2="46.5" y1="404.4219" y2="465.125"/><rect fill="#FFFFFF" filter="url(#f8rgp769gwg5a)" height="151.7578" style="stroke: #FFFFFF; stroke-width: 1.0;" width="10" x="36.5" y="493.125"/><line style="stroke: #A80036; stroke-width: 1.0;" x1="36.5" x2="36.5" y1="493.125" y2="644.8828"/><line style="stroke: #A80036; stroke-width: 1.0;" x1="46.5" x2="46.5" y1="493.125" y2="644.8828"/><rect fill="#FFFFFF" filter="url(#f8rgp769gwg5a)" height="22.3516" style="stroke: #FFFFFF; stroke-width: 1.0;" width="10" x="36.5" y="672.8828"/><line style="stroke: #A80036; stroke-width: 1.0;" x1="36.5" x2="36.5" y1="672.8828" y2="695.2344"/><line style="stroke: #A80036; stroke-width: 1.0;" x1="46.5" x2="46.5" y1="672.8828" y2="695.2344"/><line style="stroke: #A80036; stroke-width: 1.0;" x1="36.5" x2="46.5" y1="695.2344" y2="695.2344"/><rect fill="#FFFFFF" filter="url(#f8rgp769gwg5a)" height="8" style="stroke: #FFFFFF; stroke-width: 1.0;" width="10" x="204.5" y="99.9609"/><line style="stroke: #A80036; stroke-width: 1.0;" x1="204.5" x2="204.5" y1="99.9609" y2="107.9609"/><line style="stroke: #A80036; stroke-width: 1.0;" x1="214.5" x2="214.5" y1="99.9609" y2="107.9609"/><line style="stroke: #A80036; stroke-width: 1.0;" x1="204.5" x2="214.5" y1="99.9609" y2="99.9609"/><rect fill="#FFFFFF" filter="url(#f8rgp769gwg5a)" height="91.0547" style="stroke: #FFFFFF; stroke-width: 1.0;" width="10" x="204.5" y="135.9609"/><line style="stroke: #A80036; stroke-width: 1.0;" x1="204.5" x2="204.5" y1="135.9609" y2="227.0156"/><line style="stroke: #A80036; stroke-width: 1.0;" x1="214.5" x2="214.5" y1="135.9609" y2="227.0156"/><rect fill="#FFFFFF" filter="url(#f8rgp769gwg5a)" height="121.4063" style="stroke: #FFFFFF; stroke-width: 1.0;" width="10" x="204.5" y="255.0156"/><line style="stroke: #A80036; stroke-width: 1.0;" x1="204.5" x2="204.5" y1="255.0156" y2="376.4219"/><line style="stroke: #A80036; stroke-width: 1.0;" x1="214.5" x2="214.5" y1="255.0156" y2="376.4219"/><rect fill="#FFFFFF" filter="url(#f8rgp769gwg5a)" height="60.7031" style="stroke: #FFFFFF; stroke-width: 1.0;" width="10" x="204.5" y="404.4219"/><line style="stroke: #A80036; stroke-width: 1.0;" x1="204.5" x2="204.5" y1="404.4219" y2="465.125"/><line style="stroke: #A80036; stroke-width: 1.0;" x1="214.5" x2="214.5" y1="404.4219" y2="465.125"/><rect fill="#FFFFFF" filter="url(#f8rgp769gwg5a)" height="151.7578" style="stroke: #FFFFFF; stroke-width: 1.0;" width="10" x="204.5" y="493.125"/><line style="stroke: #A80036; stroke-width: 1.0;" x1="204.5" x2="204.5" y1="493.125" y2="644.8828"/><line style="stroke: #A80036; stroke-width: 1.0;" x1="214.5" x2="214.5" y1="493.125" y2="644.8828"/><rect fill="#FFFFFF" filter="url(#f8rgp769gwg5a)" height="52.7031" style="stroke: #FFFFFF; stroke-width: 1.0;" width="10" x="204.5" y="672.8828"/><line style="stroke: #A80036; stroke-width: 1.0;" x1="204.5" x2="204.5" y1="672.8828" y2="725.5859"/><line style="stroke: #A80036; stroke-width: 1.0;" x1="214.5" x2="214.5" y1="672.8828" y2="725.5859"/><line style="stroke: #A80036; stroke-width: 1.0;" x1="204.5" x2="214.5" y1="725.5859" y2="725.5859"/><rect fill="#FFFFFF" filter="url(#f8rgp769gwg5a)" height="58.3516" style="stroke: #FFFFFF; stroke-width: 1.0;" width="10" x="341.5" y="49.6094"/><line style="stroke: #A80036; stroke-width: 1.0;" x1="341.5" x2="341.5" y1="49.6094" y2="107.9609"/><line style="stroke: #A80036; stroke-width: 1.0;" x1="351.5" x2="351.5" y1="49.6094" y2="107.9609"/><line style="stroke: #A80036; stroke-width: 1.0;" x1="341.5" x2="351.5" y1="49.6094" y2="49.6094"/><rect fill="#FFFFFF" filter="url(#f8rgp769gwg5a)" height="91.0547" style="stroke: #FFFFFF; stroke-width: 1.0;" width="10" x="341.5" y="135.9609"/><line style="stroke: #A80036; stroke-width: 1.0;" x1="341.5" x2="341.5" y1="135.9609" y2="227.0156"/><line style="stroke: #A80036; stroke-width: 1.0;" x1="351.5" x2="351.5" y1="135.9609" y2="227.0156"/><rect fill="#FFFFFF" filter="url(#f8rgp769gwg5a)" height="121.4063" style="stroke: #FFFFFF; stroke-width: 1.0;" width="10" x="341.5" y="255.0156"/><line style="stroke: #A80036; stroke-width: 1.0;" x1="341.5" x2="341.5" y1="255.0156" y2="376.4219"/><line style="stroke: #A80036; stroke-width: 1.0;" x1="351.5" x2="351.5" y1="255.0156" y2="376.4219"/><rect fill="#FFFFFF" filter="url(#f8rgp769gwg5a)" height="60.7031" style="stroke: #FFFFFF; stroke-width: 1.0;" width="10" x="341.5" y="404.4219"/><line style="stroke: #A80036; stroke-width: 1.0;" x1="341.5" x2="341.5" y1="404.4219" y2="465.125"/><line style="stroke: #A80036; stroke-width: 1.0;" x1="351.5" x2="351.5" y1="404.4219" y2="465.125"/><rect fill="#FFFFFF" filter="url(#f8rgp769gwg5a)" height="151.7578" style="stroke: #FFFFFF; stroke-width: 1.0;" width="10" x="341.5" y="493.125"/><line style="stroke: #A80036; stroke-width: 1.0;" x1="341.5" x2="341.5" y1="493.125" y2="644.8828"/><line style="stroke: #A80036; stroke-width: 1.0;" x1="351.5" x2="351.5" y1="493.125" y2="644.8828"/><rect fill="#FFFFFF" filter="url(#f8rgp769gwg5a)" height="60.7031" style="stroke: #FFFFFF; stroke-width: 1.0;" width="10" x="341.5" y="672.8828"/><line style="stroke: #A80036; stroke-width: 1.0;" x1="341.5" x2="341.5" y1="672.8828" y2="733.5859"/><line style="stroke: #A80036; stroke-width: 1.0;" x1="351.5" x2="351.5" y1="672.8828" y2="733.5859"/><rect fill="#FFFFFF" filter="url(#f8rgp769gwg5a)" height="60.7031" style="stroke: #FFFFFF; stroke-width: 1.0;" width="10" x="341.5" y="761.5859"/><line style="stroke: #A80036; stroke-width: 1.0;" x1="341.5" x2="341.5" y1="761.5859" y2="822.2891"/><line style="stroke: #A80036; stroke-width: 1.0;" x1="351.5" x2="351.5" y1="761.5859" y2="822.2891"/><rect fill="#FFFFFF" filter="url(#f8rgp769gwg5a)" height="22.3516" style="stroke: #FFFFFF; stroke-width: 1.0;" width="10" x="341.5" y="850.2891"/><line style="stroke: #A80036; stroke-width: 1.0;" x1="341.5" x2="341.5" y1="850.2891" y2="872.6406"/><line style="stroke: #A80036; stroke-width: 1.0;" x1="351.5" x2="351.5" y1="850.2891" y2="872.6406"/><line style="stroke: #A80036; stroke-width: 1.0;" x1="341.5" x2="351.5" y1="872.6406" y2="872.6406"/><rect fill="#FFFFFF" filter="url(#f8rgp769gwg5a)" height="38.3516" style="stroke: #FFFFFF; stroke-width: 1.0;" width="10" x="478.5" y="426.7734"/><line style="stroke: #A80036; stroke-width: 1.0;" x1="478.5" x2="478.5" y1="426.7734" y2="465.125"/><line style="stroke: #A80036; stroke-width: 1.0;" x1="488.5" x2="488.5" y1="426.7734" y2="465.125"/><line style="stroke: #A80036; stroke-width: 1.0;" x1="478.5" x2="488.5" y1="426.7734" y2="426.7734"/><rect fill="#FFFFFF" filter="url(#f8rgp769gwg5a)" height="151.7578" style="stroke: #FFFFFF; stroke-width: 1.0;" width="10" x="478.5" y="493.125"/><line style="stroke: #A80036; stroke-width: 1.0;" x1="478.5" x2="478.5" y1="493.125" y2="644.8828"/><line style="stroke: #A80036; stroke-width: 1.0;" x1="488.5" x2="488.5" y1="493.125" y2="644.8828"/><rect fill="#FFFFFF" filter="url(#f8rgp769gwg5a)" height="60.7031" style="stroke: #FFFFFF; stroke-width: 1.0;" width="10" x="478.5" y="672.8828"/><line style="stroke: #A80036; stroke-width: 1.0;" x1="478.5" x2="478.5" y1="672.8828" y2="733.5859"/><line style="stroke: #A80036; stroke-width: 1.0;" x1="488.5" x2="488.5" y1="672.8828" y2="733.5859"/><rect fill="#FFFFFF" filter="url(#f8rgp769gwg5a)" height="60.7031" style="stroke: #FFFFFF; stroke-width: 1.0;" width="10" x="478.5" y="761.5859"/><line style="stroke: #A80036; stroke-width: 1.0;" x1="478.5" x2="478.5" y1="761.5859" y2="822.2891"/><line style="stroke: #A80036; stroke-width: 1.0;" x1="488.5" x2="488.5" y1="761.5859" y2="822.2891"/><rect fill="#FFFFFF" filter="url(#f8rgp769gwg5a)" height="22.3516" style="stroke: #FFFFFF; stroke-width: 1.0;" width="10" x="478.5" y="850.2891"/><line style="stroke: #A80036; stroke-width: 1.0;" x1="478.5" x2="478.5" y1="850.2891" y2="872.6406"/><line style="stroke: #A80036; stroke-width: 1.0;" x1="488.5" x2="488.5" y1="850.2891" y2="872.6406"/><line style="stroke: #A80036; stroke-width: 1.0;" x1="478.5" x2="488.5" y1="872.6406" y2="872.6406"/><line style="stroke: #A80036; stroke-width: 1.0;" x1="41" x2="41" y1="39.6094" y2="49.6094"/><line style="stroke: #A80036; stroke-width: 1.0; stroke-dasharray: 1.0,4.0;" x1="41" x2="41" y1="49.6094" y2="77.6094"/><line style="stroke: #A80036; stroke-width: 1.0;" x1="41" x2="41" y1="77.6094" y2="107.9609"/><line style="stroke: #A80036; stroke-width: 1.0; stroke-dasharray: 1.0,4.0;" x1="41" x2="41" y1="107.9609" y2="135.9609"/><line style="stroke: #A80036; stroke-width: 1.0;" x1="41" x2="41" y1="135.9609" y2="227.0156"/><line style="stroke: #A80036; stroke-width: 1.0; stroke-dasharray: 1.0,4.0;" x1="41" x2="41" y1="227.0156" y2="255.0156"/><line style="stroke: #A80036; stroke-width: 1.0;" x1="41" x2="41" y1="255.0156" y2="376.4219"/><line style="stroke: #A80036; stroke-width: 1.0; stroke-dasharray: 1.0,4.0;" x1="41" x2="41" y1="376.4219" y2="404.4219"/><line style="stroke: #A80036; stroke-width: 1.0;" x1="41" x2="41" y1="404.4219" y2="465.125"/><line style="stroke: #A80036; stroke-width: 1.0; stroke-dasharray: 1.0,4.0;" x1="41" x2="41" y1="465.125" y2="493.125"/><line style="stroke: #A80036; stroke-width: 1.0;" x1="41" x2="41" y1="493.125" y2="644.8828"/><line style="stroke: #A80036; stroke-width: 1.0; stroke-dasharray: 1.0,4.0;" x1="41" x2="41" y1="644.8828" y2="672.8828"/><line style="stroke: #A80036; stroke-width: 1.0;" x1="41" x2="41" y1="672.8828" y2="733.5859"/><line style="stroke: #A80036; stroke-width: 1.0; stroke-dasharray: 1.0,4.0;" x1="41" x2="41" y1="733.5859" y2="761.5859"/><line style="stroke: #A80036; stroke-width: 1.0;" x1="41" x2="41" y1="761.5859" y2="822.2891"/><line style="stroke: #A80036; stroke-width: 1.0; stroke-dasharray: 1.0,4.0;" x1="41" x2="41" y1="822.2891" y2="850.2891"/><line style="stroke: #A80036; stroke-width: 1.0;" x1="41" x2="41" y1="850.2891" y2="890.6406"/><line style="stroke: #A80036; stroke-width: 1.0;" x1="209" x2="209" y1="39.6094" y2="49.6094"/><line style="stroke: #A80036; stroke-width: 1.0; stroke-dasharray: 1.0,4.0;" x1="209" x2="209" y1="49.6094" y2="77.6094"/><line style="stroke: #A80036; stroke-width: 1.0;" x1="209" x2="209" y1="77.6094" y2="107.9609"/><line style="stroke: #A80036; stroke-width: 1.0; stroke-dasharray: 1.0,4.0;" x1="209" x2="209" y1="107.9609" y2="135.9609"/><line style="stroke: #A80036; stroke-width: 1.0;" x1="209" x2="209" y1="135.9609" y2="227.0156"/><line style="stroke: #A80036; stroke-width: 1.0; stroke-dasharray: 1.0,4.0;" x1="209" x2="209" y1="227.0156" y2="255.0156"/><line style="stroke: #A80036; stroke-width: 1.0;" x1="209" x2="209" y1="255.0156" y2="376.4219"/><line style="stroke: #A80036; stroke-width: 1.0; stroke-dasharray: 1.0,4.0;" x1="209" x2="209" y1="376.4219" y2="404.4219"/><line style="stroke: #A80036; stroke-width: 1.0;" x1="209" x2="209" y1="404.4219" y2="465.125"/><line style="stroke: #A80036; stroke-width: 1.0; stroke-dasharray: 1.0,4.0;" x1="209" x2="209" y1="465.125" y2="493.125"/><line style="stroke: #A80036; stroke-width: 1.0;" x1="209" x2="209" y1="493.125" y2="644.8828"/><line style="stroke: #A80036; stroke-width: 1.0; stroke-dasharray: 1.0,4.0;" x1="209" x2="209" y1="644.8828" y2="672.8828"/><line style="stroke: #A80036; stroke-width: 1.0;" x1="209" x2="209" y1="672.8828" y2="733.5859"/><line style="stroke: #A80036; stroke-width: 1.0; stroke-dasharray: 1.0,4.0;" x1="209" x2="209" y1="733.5859" y2="761.5859"/><line style="stroke: #A80036; stroke-width: 1.0;" x1="209" x2="209" y1="761.5859" y2="822.2891"/><line style="stroke: #A80036; stroke-width: 1.0; stroke-dasharray: 1.0,4.0;" x1="209" x2="209" y1="822.2891" y2="850.2891"/><line style="stroke: #A80036; stroke-width: 1.0;" x1="209" x2="209" y1="850.2891" y2="890.6406"/><line style="stroke: #A80036; stroke-width: 1.0;" x1="346.5" x2="346.5" y1="39.6094" y2="49.6094"/><line style="stroke: #A80036; stroke-width: 1.0; stroke-dasharray: 1.0,4.0;" x1="346.5" x2="346.5" y1="49.6094" y2="77.6094"/><line style="stroke: #A80036; stroke-width: 1.0;" x1="346.5" x2="346.5" y1="77.6094" y2="107.9609"/><line style="stroke: #A80036; stroke-width: 1.0; stroke-dasharray: 1.0,4.0;" x1="346.5" x2="346.5" y1="107.9609" y2="135.9609"/><line style="stroke: #A80036; stroke-width: 1.0;" x1="346.5" x2="346.5" y1="135.9609" y2="227.0156"/><line style="stroke: #A80036; stroke-width: 1.0; stroke-dasharray: 1.0,4.0;" x1="346.5" x2="346.5" y1="227.0156" y2="255.0156"/><line style="stroke: #A80036; stroke-width: 1.0;" x1="346.5" x2="346.5" y1="255.0156" y2="376.4219"/><line style="stroke: #A80036; stroke-width: 1.0; stroke-dasharray: 1.0,4.0;" x1="346.5" x2="346.5" y1="376.4219" y2="404.4219"/><line style="stroke: #A80036; stroke-width: 1.0;" x1="346.5" x2="346.5" y1="404.4219" y2="465.125"/><line style="stroke: #A80036; stroke-width: 1.0; stroke-dasharray: 1.0,4.0;" x1="346.5" x2="346.5" y1="465.125" y2="493.125"/><line style="stroke: #A80036; stroke-width: 1.0;" x1="346.5" x2="346.5" y1="493.125" y2="644.8828"/><line style="stroke: #A80036; stroke-width: 1.0; stroke-dasharray: 1.0,4.0;" x1="346.5" x2="346.5" y1="644.8828" y2="672.8828"/><line style="stroke: #A80036; stroke-width: 1.0;" x1="346.5" x2="346.5" y1="672.8828" y2="733.5859"/><line style="stroke: #A80036; stroke-width: 1.0; stroke-dasharray: 1.0,4.0;" x1="346.5" x2="346.5" y1="733.5859" y2="761.5859"/><line style="stroke: #A80036; stroke-width: 1.0;" x1="346.5" x2="346.5" y1="761.5859" y2="822.2891"/><line style="stroke: #A80036; stroke-width: 1.0; stroke-dasharray: 1.0,4.0;" x1="346.5" x2="346.5" y1="822.2891" y2="850.2891"/><line style="stroke: #A80036; stroke-width: 1.0;" x1="346.5" x2="346.5" y1="850.2891" y2="890.6406"/><line style="stroke: #A80036; stroke-width: 1.0;" x1="483.5" x2="483.5" y1="39.6094" y2="49.6094"/><line style="stroke: #A80036; stroke-width: 1.0; stroke-dasharray: 1.0,4.0;" x1="483.5" x2="483.5" y1="49.6094" y2="77.6094"/><line style="stroke: #A80036; stroke-width: 1.0;" x1="483.5" x2="483.5" y1="77.6094" y2="107.9609"/><line style="stroke: #A80036; stroke-width: 1.0; stroke-dasharray: 1.0,4.0;" x1="483.5" x2="483.5" y1="107.9609" y2="135.9609"/><line style="stroke: #A80036; stroke-width: 1.0;" x1="483.5" x2="483.5" y1="135.9609" y2="227.0156"/><line style="stroke: #A80036; stroke-width: 1.0; stroke-dasharray: 1.0,4.0;" x1="483.5" x2="483.5" y1="227.0156" y2="255.0156"/><line style="stroke: #A80036; stroke-width: 1.0;" x1="483.5" x2="483.5" y1="255.0156" y2="376.4219"/><line style="stroke: #A80036; stroke-width: 1.0; stroke-dasharray: 1.0,4.0;" x1="483.5" x2="483.5" y1="376.4219" y2="404.4219"/><line style="stroke: #A80036; stroke-width: 1.0;" x1="483.5" x2="483.5" y1="404.4219" y2="465.125"/><line style="stroke: #A80036; stroke-width: 1.0; stroke-dasharray: 1.0,4.0;" x1="483.5" x2="483.5" y1="465.125" y2="493.125"/><line style="stroke: #A80036; stroke-width: 1.0;" x1="483.5" x2="483.5" y1="493.125" y2="644.8828"/><line style="stroke: #A80036; stroke-width: 1.0; stroke-dasharray: 1.0,4.0;" x1="483.5" x2="483.5" y1="644.8828" y2="672.8828"/><line style="stroke: #A80036; stroke-width: 1.0;" x1="483.5" x2="483.5" y1="672.8828" y2="733.5859"/><line style="stroke: #A80036; stroke-width: 1.0; stroke-dasharray: 1.0,4.0;" x1="483.5" x2="483.5" y1="733.5859" y2="761.5859"/><line style="stroke: #A80036; stroke-width: 1.0;" x1="483.5" x2="483.5" y1="761.5859" y2="822.2891"/><line style="stroke: #A80036; stroke-width: 1.0; stroke-dasharray: 1.0,4.0;" x1="483.5" x2="483.5" y1="822.2891" y2="850.2891"/><line style="stroke: #A80036; stroke-width: 1.0;" x1="483.5" x2="483.5" y1="850.2891" y2="890.6406"/><rect fill="#FEFECE" filter="url(#f8rgp769gwg5a)" height="31.6094" style="stroke: #A80036; stroke-width: 1.5;" width="63" x="8" y="3"/><text fill="#000000" font-family="sans-serif" font-size="14" lengthAdjust="spacingAndGlyphs" textLength="49" x="15" y="24.5332">Arduino</text><rect fill="#FEFECE" filter="url(#f8rgp769gwg5a)" height="31.6094" style="stroke: #A80036; stroke-width: 1.5;" width="63" x="8" y="889.6406"/><text fill="#000000" font-family="sans-serif" font-size="14" lengthAdjust="spacingAndGlyphs" textLength="49" x="15" y="911.1738">Arduino</text><rect fill="#FEFECE" filter="url(#f8rgp769gwg5a)" height="31.6094" style="stroke: #A80036; stroke-width: 1.5;" width="103" x="156" y="3"/><text fill="#000000" font-family="sans-serif" font-size="14" lengthAdjust="spacingAndGlyphs" textLength="89" x="163" y="24.5332">Client Arduino</text><rect fill="#FEFECE" filter="url(#f8rgp769gwg5a)" height="31.6094" style="stroke: #A80036; stroke-width: 1.5;" width="103" x="156" y="889.6406"/><text fill="#000000" font-family="sans-serif" font-size="14" lengthAdjust="spacingAndGlyphs" textLength="89" x="163" y="911.1738">Client Arduino</text><rect fill="#FEFECE" filter="url(#f8rgp769gwg5a)" height="31.6094" style="stroke: #A80036; stroke-width: 1.5;" width="56" x="316.5" y="3"/><text fill="#000000" font-family="sans-serif" font-size="14" lengthAdjust="spacingAndGlyphs" textLength="42" x="323.5" y="24.5332">Server</text><rect fill="#FEFECE" filter="url(#f8rgp769gwg5a)" height="31.6094" style="stroke: #A80036; stroke-width: 1.5;" width="56" x="316.5" y="889.6406"/><text fill="#000000" font-family="sans-serif" font-size="14" lengthAdjust="spacingAndGlyphs" textLength="42" x="323.5" y="911.1738">Server</text><rect fill="#FEFECE" filter="url(#f8rgp769gwg5a)" height="31.6094" style="stroke: #A80036; stroke-width: 1.5;" width="50" x="456.5" y="3"/><text fill="#000000" font-family="sans-serif" font-size="14" lengthAdjust="spacingAndGlyphs" textLength="36" x="463.5" y="24.5332">Client</text><rect fill="#FEFECE" filter="url(#f8rgp769gwg5a)" height="31.6094" style="stroke: #A80036; stroke-width: 1.5;" width="50" x="456.5" y="889.6406"/><text fill="#000000" font-family="sans-serif" font-size="14" lengthAdjust="spacingAndGlyphs" textLength="36" x="463.5" y="911.1738">Client</text><rect fill="#FFFFFF" filter="url(#f8rgp769gwg5a)" height="58.3516" style="stroke: #FFFFFF; stroke-width: 1.0;" width="10" x="36.5" y="49.6094"/><line style="stroke: #A80036; stroke-width: 1.0;" x1="36.5" x2="36.5" y1="49.6094" y2="107.9609"/><line style="stroke: #A80036; stroke-width: 1.0;" x1="46.5" x2="46.5" y1="49.6094" y2="107.9609"/><line style="stroke: #A80036; stroke-width: 1.0;" x1="36.5" x2="46.5" y1="49.6094" y2="49.6094"/><rect fill="#FFFFFF" filter="url(#f8rgp769gwg5a)" height="91.0547" style="stroke: #FFFFFF; stroke-width: 1.0;" width="10" x="36.5" y="135.9609"/><line style="stroke: #A80036; stroke-width: 1.0;" x1="36.5" x2="36.5" y1="135.9609" y2="227.0156"/><line style="stroke: #A80036; stroke-width: 1.0;" x1="46.5" x2="46.5" y1="135.9609" y2="227.0156"/><rect fill="#FFFFFF" filter="url(#f8rgp769gwg5a)" height="121.4063" style="stroke: #FFFFFF; stroke-width: 1.0;" width="10" x="36.5" y="255.0156"/><line style="stroke: #A80036; stroke-width: 1.0;" x1="36.5" x2="36.5" y1="255.0156" y2="376.4219"/><line style="stroke: #A80036; stroke-width: 1.0;" x1="46.5" x2="46.5" y1="255.0156" y2="376.4219"/><rect fill="#FFFFFF" filter="url(#f8rgp769gwg5a)" height="60.7031" style="stroke: #FFFFFF; stroke-width: 1.0;" width="10" x="36.5" y="404.4219"/><line style="stroke: #A80036; stroke-width: 1.0;" x1="36.5" x2="36.5" y1="404.4219" y2="465.125"/><line style="stroke: #A80036; stroke-width: 1.0;" x1="46.5" x2="46.5" y1="404.4219" y2="465.125"/><rect fill="#FFFFFF" filter="url(#f8rgp769gwg5a)" height="151.7578" style="stroke: #FFFFFF; stroke-width: 1.0;" width="10" x="36.5" y="493.125"/><line style="stroke: #A80036; stroke-width: 1.0;" x1="36.5" x2="36.5" y1="493.125" y2="644.8828"/><line style="stroke: #A80036; stroke-width: 1.0;" x1="46.5" x2="46.5" y1="493.125" y2="644.8828"/><rect fill="#FFFFFF" filter="url(#f8rgp769gwg5a)" height="22.3516" style="stroke: #FFFFFF; stroke-width: 1.0;" width="10" x="36.5" y="672.8828"/><line style="stroke: #A80036; stroke-width: 1.0;" x1="36.5" x2="36.5" y1="672.8828" y2="695.2344"/><line style="stroke: #A80036; stroke-width: 1.0;" x1="46.5" x2="46.5" y1="672.8828" y2="695.2344"/><line style="stroke: #A80036; stroke-width: 1.0;" x1="36.5" x2="46.5" y1="695.2344" y2="695.2344"/><rect fill="#FFFFFF" filter="url(#f8rgp769gwg5a)" height="8" style="stroke: #FFFFFF; stroke-width: 1.0;" width="10" x="204.5" y="99.9609"/><line style="stroke: #A80036; stroke-width: 1.0;" x1="204.5" x2="204.5" y1="99.9609" y2="107.9609"/><line style="stroke: #A80036; stroke-width: 1.0;" x1="214.5" x2="214.5" y1="99.9609" y2="107.9609"/><line style="stroke: #A80036; stroke-width: 1.0;" x1="204.5" x2="214.5" y1="99.9609" y2="99.9609"/><rect fill="#FFFFFF" filter="url(#f8rgp769gwg5a)" height="91.0547" style="stroke: #FFFFFF; stroke-width: 1.0;" width="10" x="204.5" y="135.9609"/><line style="stroke: #A80036; stroke-width: 1.0;" x1="204.5" x2="204.5" y1="135.9609" y2="227.0156"/><line style="stroke: #A80036; stroke-width: 1.0;" x1="214.5" x2="214.5" y1="135.9609" y2="227.0156"/><rect fill="#FFFFFF" filter="url(#f8rgp769gwg5a)" height="121.4063" style="stroke: #FFFFFF; stroke-width: 1.0;" width="10" x="204.5" y="255.0156"/><line style="stroke: #A80036; stroke-width: 1.0;" x1="204.5" x2="204.5" y1="255.0156" y2="376.4219"/><line style="stroke: #A80036; stroke-width: 1.0;" x1="214.5" x2="214.5" y1="255.0156" y2="376.4219"/><rect fill="#FFFFFF" filter="url(#f8rgp769gwg5a)" height="60.7031" style="stroke: #FFFFFF; stroke-width: 1.0;" width="10" x="204.5" y="404.4219"/><line style="stroke: #A80036; stroke-width: 1.0;" x1="204.5" x2="204.5" y1="404.4219" y2="465.125"/><line style="stroke: #A80036; stroke-width: 1.0;" x1="214.5" x2="214.5" y1="404.4219" y2="465.125"/><rect fill="#FFFFFF" filter="url(#f8rgp769gwg5a)" height="151.7578" style="stroke: #FFFFFF; stroke-width: 1.0;" width="10" x="204.5" y="493.125"/><line style="stroke: #A80036; stroke-width: 1.0;" x1="204.5" x2="204.5" y1="493.125" y2="644.8828"/><line style="stroke: #A80036; stroke-width: 1.0;" x1="214.5" x2="214.5" y1="493.125" y2="644.8828"/><rect fill="#FFFFFF" filter="url(#f8rgp769gwg5a)" height="52.7031" style="stroke: #FFFFFF; stroke-width: 1.0;" width="10" x="204.5" y="672.8828"/><line style="stroke: #A80036; stroke-width: 1.0;" x1="204.5" x2="204.5" y1="672.8828" y2="725.5859"/><line style="stroke: #A80036; stroke-width: 1.0;" x1="214.5" x2="214.5" y1="672.8828" y2="725.5859"/><line style="stroke: #A80036; stroke-width: 1.0;" x1="204.5" x2="214.5" y1="725.5859" y2="725.5859"/><rect fill="#FFFFFF" filter="url(#f8rgp769gwg5a)" height="58.3516" style="stroke: #FFFFFF; stroke-width: 1.0;" width="10" x="341.5" y="49.6094"/><line style="stroke: #A80036; stroke-width: 1.0;" x1="341.5" x2="341.5" y1="49.6094" y2="107.9609"/><line style="stroke: #A80036; stroke-width: 1.0;" x1="351.5" x2="351.5" y1="49.6094" y2="107.9609"/><line style="stroke: #A80036; stroke-width: 1.0;" x1="341.5" x2="351.5" y1="49.6094" y2="49.6094"/><rect fill="#FFFFFF" filter="url(#f8rgp769gwg5a)" height="91.0547" style="stroke: #FFFFFF; stroke-width: 1.0;" width="10" x="341.5" y="135.9609"/><line style="stroke: #A80036; stroke-width: 1.0;" x1="341.5" x2="341.5" y1="135.9609" y2="227.0156"/><line style="stroke: #A80036; stroke-width: 1.0;" x1="351.5" x2="351.5" y1="135.9609" y2="227.0156"/><rect fill="#FFFFFF" filter="url(#f8rgp769gwg5a)" height="121.4063" style="stroke: #FFFFFF; stroke-width: 1.0;" width="10" x="341.5" y="255.0156"/><line style="stroke: #A80036; stroke-width: 1.0;" x1="341.5" x2="341.5" y1="255.0156" y2="376.4219"/><line style="stroke: #A80036; stroke-width: 1.0;" x1="351.5" x2="351.5" y1="255.0156" y2="376.4219"/><rect fill="#FFFFFF" filter="url(#f8rgp769gwg5a)" height="60.7031" style="stroke: #FFFFFF; stroke-width: 1.0;" width="10" x="341.5" y="404.4219"/><line style="stroke: #A80036; stroke-width: 1.0;" x1="341.5" x2="341.5" y1="404.4219" y2="465.125"/><line style="stroke: #A80036; stroke-width: 1.0;" x1="351.5" x2="351.5" y1="404.4219" y2="465.125"/><rect fill="#FFFFFF" filter="url(#f8rgp769gwg5a)" height="151.7578" style="stroke: #FFFFFF; stroke-width: 1.0;" width="10" x="341.5" y="493.125"/><line style="stroke: #A80036; stroke-width: 1.0;" x1="341.5" x2="341.5" y1="493.125" y2="644.8828"/><line style="stroke: #A80036; stroke-width: 1.0;" x1="351.5" x2="351.5" y1="493.125" y2="644.8828"/><rect fill="#FFFFFF" filter="url(#f8rgp769gwg5a)" height="60.7031" style="stroke: #FFFFFF; stroke-width: 1.0;" width="10" x="341.5" y="672.8828"/><line style="stroke: #A80036; stroke-width: 1.0;" x1="341.5" x2="341.5" y1="672.8828" y2="733.5859"/><line style="stroke: #A80036; stroke-width: 1.0;" x1="351.5" x2="351.5" y1="672.8828" y2="733.5859"/><rect fill="#FFFFFF" filter="url(#f8rgp769gwg5a)" height="60.7031" style="stroke: #FFFFFF; stroke-width: 1.0;" width="10" x="341.5" y="761.5859"/><line style="stroke: #A80036; stroke-width: 1.0;" x1="341.5" x2="341.5" y1="761.5859" y2="822.2891"/><line style="stroke: #A80036; stroke-width: 1.0;" x1="351.5" x2="351.5" y1="761.5859" y2="822.2891"/><rect fill="#FFFFFF" filter="url(#f8rgp769gwg5a)" height="22.3516" style="stroke: #FFFFFF; stroke-width: 1.0;" width="10" x="341.5" y="850.2891"/><line style="stroke: #A80036; stroke-width: 1.0;" x1="341.5" x2="341.5" y1="850.2891" y2="872.6406"/><line style="stroke: #A80036; stroke-width: 1.0;" x1="351.5" x2="351.5" y1="850.2891" y2="872.6406"/><line style="stroke: #A80036; stroke-width: 1.0;" x1="341.5" x2="351.5" y1="872.6406" y2="872.6406"/><rect fill="#FFFFFF" filter="url(#f8rgp769gwg5a)" height="38.3516" style="stroke: #FFFFFF; stroke-width: 1.0;" width="10" x="478.5" y="426.7734"/><line style="stroke: #A80036; stroke-width: 1.0;" x1="478.5" x2="478.5" y1="426.7734" y2="465.125"/><line style="stroke: #A80036; stroke-width: 1.0;" x1="488.5" x2="488.5" y1="426.7734" y2="465.125"/><line style="stroke: #A80036; stroke-width: 1.0;" x1="478.5" x2="488.5" y1="426.7734" y2="426.7734"/><rect fill="#FFFFFF" filter="url(#f8rgp769gwg5a)" height="151.7578" style="stroke: #FFFFFF; stroke-width: 1.0;" width="10" x="478.5" y="493.125"/><line style="stroke: #A80036; stroke-width: 1.0;" x1="478.5" x2="478.5" y1="493.125" y2="644.8828"/><line style="stroke: #A80036; stroke-width: 1.0;" x1="488.5" x2="488.5" y1="493.125" y2="644.8828"/><rect fill="#FFFFFF" filter="url(#f8rgp769gwg5a)" height="60.7031" style="stroke: #FFFFFF; stroke-width: 1.0;" width="10" x="478.5" y="672.8828"/><line style="stroke: #A80036; stroke-width: 1.0;" x1="478.5" x2="478.5" y1="672.8828" y2="733.5859"/><line style="stroke: #A80036; stroke-width: 1.0;" x1="488.5" x2="488.5" y1="672.8828" y2="733.5859"/><rect fill="#FFFFFF" filter="url(#f8rgp769gwg5a)" height="60.7031" style="stroke: #FFFFFF; stroke-width: 1.0;" width="10" x="478.5" y="761.5859"/><line style="stroke: #A80036; stroke-width: 1.0;" x1="478.5" x2="478.5" y1="761.5859" y2="822.2891"/><line style="stroke: #A80036; stroke-width: 1.0;" x1="488.5" x2="488.5" y1="761.5859" y2="822.2891"/><rect fill="#FFFFFF" filter="url(#f8rgp769gwg5a)" height="22.3516" style="stroke: #FFFFFF; stroke-width: 1.0;" width="10" x="478.5" y="850.2891"/><line style="stroke: #A80036; stroke-width: 1.0;" x1="478.5" x2="478.5" y1="850.2891" y2="872.6406"/><line style="stroke: #A80036; stroke-width: 1.0;" x1="488.5" x2="488.5" y1="850.2891" y2="872.6406"/><line style="stroke: #A80036; stroke-width: 1.0;" x1="478.5" x2="488.5" y1="872.6406" y2="872.6406"/><polygon fill="#A80036" points="57.5,95.9609,47.5,99.9609,57.5,103.9609,53.5,99.9609" style="stroke: #A80036; stroke-width: 1.0;"/><line style="stroke: #A80036; stroke-width: 1.0;" x1="51.5" x2="203.5" y1="99.9609" y2="99.9609"/><text fill="#000000" font-family="sans-serif" font-size="13" lengthAdjust="spacingAndGlyphs" textLength="107" x="63.5" y="95.1045">StartCommPacket</text><polygon fill="#A80036" points="329.5,154.3125,339.5,158.3125,329.5,162.3125,333.5,158.3125" style="stroke: #A80036; stroke-width: 1.0;"/><line style="stroke: #A80036; stroke-width: 1.0;" x1="214.5" x2="335.5" y1="158.3125" y2="158.3125"/><text fill="#000000" font-family="sans-serif" font-size="13" lengthAdjust="spacingAndGlyphs" textLength="62" x="221.5" y="153.4561">CONNECT</text><polygon fill="#A80036" points="225.5,184.6641,215.5,188.6641,225.5,192.6641,221.5,188.6641" style="stroke: #A80036; stroke-width: 1.0;"/><line style="stroke: #A80036; stroke-width: 1.0;" x1="219.5" x2="340.5" y1="188.6641" y2="188.6641"/><text fill="#000000" font-family="sans-serif" font-size="13" lengthAdjust="spacingAndGlyphs" textLength="99" x="231.5" y="183.8076">TURN_OFF_LED</text><polygon fill="#A80036" points="57.5,215.0156,47.5,219.0156,57.5,223.0156,53.5,219.0156" style="stroke: #A80036; stroke-width: 1.0;"/><line style="stroke: #A80036; stroke-width: 1.0;" x1="51.5" x2="203.5" y1="219.0156" y2="219.0156"/><text fill="#000000" font-family="sans-serif" font-size="13" lengthAdjust="spacingAndGlyphs" textLength="134" x="63.5" y="214.1592">LedPacket{state: false}</text><polygon fill="#A80036" points="192.5,273.3672,202.5,277.3672,192.5,281.3672,196.5,277.3672" style="stroke: #A80036; stroke-width: 1.0;"/><line style="stroke: #A80036; stroke-width: 1.0;" x1="46.5" x2="198.5" y1="277.3672" y2="277.3672"/><text fill="#000000" font-family="sans-serif" font-size="13" lengthAdjust="spacingAndGlyphs" textLength="113" x="53.5" y="272.5107">PressButtonPacket</text><polygon fill="#A80036" points="329.5,303.7188,339.5,307.7188,329.5,311.7188,333.5,307.7188" style="stroke: #A80036; stroke-width: 1.0;"/><line style="stroke: #A80036; stroke-width: 1.0;" x1="214.5" x2="335.5" y1="307.7188" y2="307.7188"/><text fill="#000000" font-family="sans-serif" font-size="13" lengthAdjust="spacingAndGlyphs" textLength="103" x="221.5" y="302.8623">PRESS_BUTTON</text><polygon fill="#A80036" points="225.5,334.0703,215.5,338.0703,225.5,342.0703,221.5,338.0703" style="stroke: #A80036; stroke-width: 1.0;"/><line style="stroke: #A80036; stroke-width: 1.0;" x1="219.5" x2="340.5" y1="338.0703" y2="338.0703"/><text fill="#000000" font-family="sans-serif" font-size="13" lengthAdjust="spacingAndGlyphs" textLength="92" x="231.5" y="333.2139">TURN_ON_LED</text><polygon fill="#A80036" points="57.5,364.4219,47.5,368.4219,57.5,372.4219,53.5,368.4219" style="stroke: #A80036; stroke-width: 1.0;"/><line style="stroke: #A80036; stroke-width: 1.0;" x1="51.5" x2="203.5" y1="368.4219" y2="368.4219"/><text fill="#000000" font-family="sans-serif" font-size="13" lengthAdjust="spacingAndGlyphs" textLength="129" x="63.5" y="363.5654">LedPacket{state: true}</text><polygon fill="#A80036" points="362.5,422.7734,352.5,426.7734,362.5,430.7734,358.5,426.7734" style="stroke: #A80036; stroke-width: 1.0;"/><line style="stroke: #A80036; stroke-width: 1.0;" x1="356.5" x2="477.5" y1="426.7734" y2="426.7734"/><text fill="#000000" font-family="sans-serif" font-size="13" lengthAdjust="spacingAndGlyphs" textLength="62" x="368.5" y="421.917">CONNECT</text><polygon fill="#A80036" points="466.5,453.125,476.5,457.125,466.5,461.125,470.5,457.125" style="stroke: #A80036; stroke-width: 1.0;"/><line style="stroke: #A80036; stroke-width: 1.0;" x1="351.5" x2="472.5" y1="457.125" y2="457.125"/><text fill="#000000" font-family="sans-serif" font-size="13" lengthAdjust="spacingAndGlyphs" textLength="92" x="358.5" y="452.2686">TURN_ON_LED</text><polygon fill="#A80036" points="192.5,511.4766,202.5,515.4766,192.5,519.4766,196.5,515.4766" style="stroke: #A80036; stroke-width: 1.0;"/><line style="stroke: #A80036; stroke-width: 1.0;" x1="46.5" x2="198.5" y1="515.4766" y2="515.4766"/><text fill="#000000" font-family="sans-serif" font-size="13" lengthAdjust="spacingAndGlyphs" textLength="113" x="53.5" y="510.6201">PressButtonPacket</text><polygon fill="#A80036" points="329.5,541.8281,339.5,545.8281,329.5,549.8281,333.5,545.8281" style="stroke: #A80036; stroke-width: 1.0;"/><line style="stroke: #A80036; stroke-width: 1.0;" x1="214.5" x2="335.5" y1="545.8281" y2="545.8281"/><text fill="#000000" font-family="sans-serif" font-size="13" lengthAdjust="spacingAndGlyphs" textLength="103" x="221.5" y="540.9717">PRESS_BUTTON</text><polygon fill="#A80036" points="466.5,572.1797,476.5,576.1797,466.5,580.1797,470.5,576.1797" style="stroke: #A80036; stroke-width: 1.0;"/><line style="stroke: #A80036; stroke-width: 1.0;" x1="351.5" x2="472.5" y1="576.1797" y2="576.1797"/><text fill="#000000" font-family="sans-serif" font-size="13" lengthAdjust="spacingAndGlyphs" textLength="99" x="358.5" y="571.3232">TURN_OFF_LED</text><polygon fill="#A80036" points="225.5,602.5313,215.5,606.5313,225.5,610.5313,221.5,606.5313" style="stroke: #A80036; stroke-width: 1.0;"/><line style="stroke: #A80036; stroke-width: 1.0;" x1="219.5" x2="340.5" y1="606.5313" y2="606.5313"/><text fill="#000000" font-family="sans-serif" font-size="13" lengthAdjust="spacingAndGlyphs" textLength="99" x="231.5" y="601.6748">TURN_OFF_LED</text><polygon fill="#A80036" points="57.5,632.8828,47.5,636.8828,57.5,640.8828,53.5,636.8828" style="stroke: #A80036; stroke-width: 1.0;"/><line style="stroke: #A80036; stroke-width: 1.0;" x1="51.5" x2="203.5" y1="636.8828" y2="636.8828"/><text fill="#000000" font-family="sans-serif" font-size="13" lengthAdjust="spacingAndGlyphs" textLength="134" x="63.5" y="632.0264">LedPacket{state: false}</text><polygon fill="#A80036" points="52.5,691.2344,42.5,695.2344,52.5,699.2344,48.5,695.2344" style="stroke: #A80036; stroke-width: 1.0;"/><line style="stroke: #A80036; stroke-width: 1.0;" x1="46.5" x2="203.5" y1="695.2344" y2="695.2344"/><text fill="#000000" font-family="sans-serif" font-size="13" lengthAdjust="spacingAndGlyphs" textLength="102" x="58.5" y="690.3779">EndCommPacket</text><line style="stroke: #A80036; stroke-width: 2.0;" x1="32.5" x2="50.5" y1="686.2344" y2="704.2344"/><line style="stroke: #A80036; stroke-width: 2.0;" x1="32.5" x2="50.5" y1="704.2344" y2="686.2344"/><polygon fill="#A80036" points="329.5,721.5859,339.5,725.5859,329.5,729.5859,333.5,725.5859" style="stroke: #A80036; stroke-width: 1.0;"/><line style="stroke: #A80036; stroke-width: 1.0;" x1="209.5" x2="335.5" y1="725.5859" y2="725.5859"/><text fill="#000000" font-family="sans-serif" font-size="13" lengthAdjust="spacingAndGlyphs" textLength="83" x="216.5" y="720.7295">DISCONNECT</text><line style="stroke: #A80036; stroke-width: 2.0;" x1="200.5" x2="218.5" y1="716.5859" y2="734.5859"/><line style="stroke: #A80036; stroke-width: 2.0;" x1="200.5" x2="218.5" y1="734.5859" y2="716.5859"/><polygon fill="#A80036" points="362.5,779.9375,352.5,783.9375,362.5,787.9375,358.5,783.9375" style="stroke: #A80036; stroke-width: 1.0;"/><line style="stroke: #A80036; stroke-width: 1.0;" x1="356.5" x2="477.5" y1="783.9375" y2="783.9375"/><text fill="#000000" font-family="sans-serif" font-size="13" lengthAdjust="spacingAndGlyphs" textLength="103" x="368.5" y="779.0811">PRESS_BUTTON</text><polygon fill="#A80036" points="466.5,810.2891,476.5,814.2891,466.5,818.2891,470.5,814.2891" style="stroke: #A80036; stroke-width: 1.0;"/><line style="stroke: #A80036; stroke-width: 1.0;" x1="351.5" x2="472.5" y1="814.2891" y2="814.2891"/><text fill="#000000" font-family="sans-serif" font-size="13" lengthAdjust="spacingAndGlyphs" textLength="92" x="358.5" y="809.4326">TURN_ON_LED</text><polygon fill="#A80036" points="471.5,868.6406,481.5,872.6406,471.5,876.6406,475.5,872.6406" style="stroke: #A80036; stroke-width: 1.0;"/><line style="stroke: #A80036; stroke-width: 1.0;" x1="346.5" x2="477.5" y1="872.6406" y2="872.6406"/><text fill="#000000" font-family="sans-serif" font-size="13" lengthAdjust="spacingAndGlyphs" textLength="83" x="353.5" y="867.7842">DISCONNECT</text><line style="stroke: #A80036; stroke-width: 2.0;" x1="337.5" x2="355.5" y1="863.6406" y2="881.6406"/><line style="stroke: #A80036; stroke-width: 2.0;" x1="337.5" x2="355.5" y1="881.6406" y2="863.6406"/><line style="stroke: #A80036; stroke-width: 2.0;" x1="474.5" x2="492.5" y1="863.6406" y2="881.6406"/><line style="stroke: #A80036; stroke-width: 2.0;" x1="474.5" x2="492.5" y1="881.6406" y2="863.6406"/><!--MD5=[af4995bfe612e4003c6e72ff9450b12b]
@startuml

participant Arduino
participant "Client Arduino" as AClient
participant Server
participant Client

activate Server
activate Arduino
...
AClient -> Arduino: StartCommPacket
activate AClient
...
AClient -> Server: CONNECT
Server -> AClient: TURN_OFF_LED
AClient -> Arduino: LedPacket{state: false}
...
Arduino -> AClient: PressButtonPacket
AClient -> Server: PRESS_BUTTON
Server -> AClient: TURN_ON_LED
AClient -> Arduino: LedPacket{state: true}
...
Client -> Server: CONNECT
activate Client
Server -> Client: TURN_ON_LED
...
Arduino -> AClient: PressButtonPacket
AClient -> Server: PRESS_BUTTON
Server -> Client: TURN_OFF_LED
Server -> AClient: TURN_OFF_LED
AClient -> Arduino: LedPacket{state: false}
...
AClient -> Arduino: EndCommPacket
destroy Arduino
AClient -> Server: DISCONNECT
destroy AClient
...
Client -> Server: PRESS_BUTTON
Server -> Client: TURN_ON_LED
...
Server -> Client : DISCONNECT
destroy Server
destroy Client

@enduml

PlantUML version 1.2019.10(Fri Sep 13 22:53:03 CEST 2019)
(GPL source distribution)
Java Runtime: OpenJDK Runtime Environment
JVM: OpenJDK 64-Bit Server VM
Java Version: 11.0.3+12-b304.56
Operating System: Windows 7
Default Encoding: Cp1252
Language: it
Country: IT
--></g></svg>