<?xml version="1.0" encoding="UTF-8" standalone="no"?>
<svg xmlns="http://www.w3.org/2000/svg" contentScriptType="application/ecmascript" contentStyleType="text/css"
     height="474px" preserveAspectRatio="none" style="width:217px;height:474px;" version="1.1" viewBox="0 0 217 474"
     width="217px" zoomAndPan="magnify"><defs><filter height="300%" id="f1i43p0r7tkb2w" width="300%" x="-1" y="-1"><feGaussianBlur result="blurOut" stdDeviation="2.0"/><feColorMatrix in="blurOut" result="blurOut2" type="matrix" values="0 0 0 0 0 0 0 0 0 0 0 0 0 0 0 0 0 0 .4 0"/><feOffset dx="4.0" dy="4.0" in="blurOut2" result="blurOut3"/><feBlend in="SourceGraphic" in2="blurOut3" mode="normal"/></filter></defs><g><rect fill="#FFFFFF" filter="url(#f1i43p0r7tkb2w)" height="342.8125" style="stroke: #A80036; stroke-width: 1.0;" width="10" x="36.5" y="71.9609"/><rect fill="#FFFFFF" filter="url(#f1i43p0r7tkb2w)" height="342.8125" style="stroke: #A80036; stroke-width: 1.0;" width="10" x="151.5" y="71.9609"/><line style="stroke: #A80036; stroke-width: 1.0; stroke-dasharray: 5.0,5.0;" x1="41" x2="41" y1="39.6094" y2="432.7734"/><line style="stroke: #A80036; stroke-width: 1.0; stroke-dasharray: 5.0,5.0;" x1="156" x2="156" y1="39.6094" y2="432.7734"/><rect fill="#FEFECE" filter="url(#f1i43p0r7tkb2w)" height="31.6094" style="stroke: #A80036; stroke-width: 1.5;" width="63" x="8" y="3"/><text fill="#000000" font-family="sans-serif" font-size="14" lengthAdjust="spacingAndGlyphs" textLength="49" x="15" y="24.5332">Arduino</text><rect fill="#FEFECE" filter="url(#f1i43p0r7tkb2w)" height="31.6094" style="stroke: #A80036; stroke-width: 1.5;" width="63" x="8" y="431.7734"/><text fill="#000000" font-family="sans-serif" font-size="14" lengthAdjust="spacingAndGlyphs" textLength="49" x="15" y="453.3066">Arduino</text><rect fill="#FEFECE" filter="url(#f1i43p0r7tkb2w)" height="31.6094" style="stroke: #A80036; stroke-width: 1.5;" width="103" x="103" y="3"/><text fill="#000000" font-family="sans-serif" font-size="14" lengthAdjust="spacingAndGlyphs" textLength="89" x="110" y="24.5332">Client Arduino</text><rect fill="#FEFECE" filter="url(#f1i43p0r7tkb2w)" height="31.6094" style="stroke: #A80036; stroke-width: 1.5;" width="103" x="103" y="431.7734"/><text fill="#000000" font-family="sans-serif" font-size="14" lengthAdjust="spacingAndGlyphs" textLength="89" x="110" y="453.3066">Client Arduino</text><rect fill="#FFFFFF" filter="url(#f1i43p0r7tkb2w)" height="342.8125" style="stroke: #A80036; stroke-width: 1.0;" width="10" x="36.5" y="71.9609"/><rect fill="#FFFFFF" filter="url(#f1i43p0r7tkb2w)" height="342.8125" style="stroke: #A80036; stroke-width: 1.0;" width="10" x="151.5" y="71.9609"/><polygon fill="#A80036" points="57.5,67.9609,47.5,71.9609,57.5,75.9609,53.5,71.9609" style="stroke: #A80036; stroke-width: 1.0;"/><line style="stroke: #A80036; stroke-width: 1.0;" x1="51.5" x2="150.5" y1="71.9609" y2="71.9609"/><text fill="#000000" font-family="sans-serif" font-size="13" lengthAdjust="spacingAndGlyphs" textLength="66" x="63.5" y="67.1045">StartComm</text><polygon fill="#A80036" points="57.5,98.3125,47.5,102.3125,57.5,106.3125,53.5,102.3125" style="stroke: #A80036; stroke-width: 1.0;"/><line style="stroke: #A80036; stroke-width: 1.0;" x1="51.5" x2="150.5" y1="102.3125" y2="102.3125"/><text fill="#000000" font-family="sans-serif" font-size="13" lengthAdjust="spacingAndGlyphs" textLength="74" x="63.5" y="97.4561">StopReading</text><polygon fill="#A80036" points="139.5,153.6641,149.5,157.6641,139.5,161.6641,143.5,157.6641" style="stroke: #A80036; stroke-width: 1.0;"/><line style="stroke: #A80036; stroke-width: 1.0;" x1="46.5" x2="145.5" y1="157.6641" y2="157.6641"/><text fill="#000000" font-family="sans-serif" font-size="13" lengthAdjust="spacingAndGlyphs" textLength="78" x="53.5" y="152.8076">Pacchetti vari</text><polygon fill="#A80036" points="139.5,184.0156,149.5,188.0156,139.5,192.0156,143.5,188.0156" style="stroke: #A80036; stroke-width: 1.0;"/><line style="stroke: #A80036; stroke-width: 1.0;" x1="46.5" x2="145.5" y1="188.0156" y2="188.0156"/><text fill="#000000" font-family="sans-serif" font-size="13" lengthAdjust="spacingAndGlyphs" textLength="81" x="53.5" y="183.1592">ReadyToRead</text><polygon fill="#A80036" points="57.5,239.3672,47.5,243.3672,57.5,247.3672,53.5,243.3672" style="stroke: #A80036; stroke-width: 1.0;"/><line style="stroke: #A80036; stroke-width: 1.0;" x1="51.5" x2="150.5" y1="243.3672" y2="243.3672"/><text fill="#000000" font-family="sans-serif" font-size="13" lengthAdjust="spacingAndGlyphs" textLength="78" x="63.5" y="238.5107">Pacchetti vari</text><polygon fill="#A80036" points="57.5,269.7188,47.5,273.7188,57.5,277.7188,53.5,273.7188" style="stroke: #A80036; stroke-width: 1.0;"/><line style="stroke: #A80036; stroke-width: 1.0;" x1="51.5" x2="150.5" y1="273.7188" y2="273.7188"/><text fill="#000000" font-family="sans-serif" font-size="13" lengthAdjust="spacingAndGlyphs" textLength="74" x="63.5" y="268.8623">StopReading</text><polygon fill="#A80036" points="139.5,325.0703,149.5,329.0703,139.5,333.0703,143.5,329.0703" style="stroke: #A80036; stroke-width: 1.0;"/><line style="stroke: #A80036; stroke-width: 1.0;" x1="46.5" x2="145.5" y1="329.0703" y2="329.0703"/><text fill="#000000" font-family="sans-serif" font-size="13" lengthAdjust="spacingAndGlyphs" textLength="78" x="53.5" y="324.2139">Pacchetti vari</text><polygon fill="#A80036" points="139.5,355.4219,149.5,359.4219,139.5,363.4219,143.5,359.4219" style="stroke: #A80036; stroke-width: 1.0;"/><line style="stroke: #A80036; stroke-width: 1.0;" x1="46.5" x2="145.5" y1="359.4219" y2="359.4219"/><text fill="#000000" font-family="sans-serif" font-size="13" lengthAdjust="spacingAndGlyphs" textLength="81" x="53.5" y="354.5654">ReadyToRead</text><polygon fill="#A80036" points="52.5,410.7734,42.5,414.7734,52.5,418.7734,48.5,414.7734" style="stroke: #A80036; stroke-width: 1.0;"/><line style="stroke: #A80036; stroke-width: 1.0;" x1="46.5" x2="155.5" y1="414.7734" y2="414.7734"/><text fill="#000000" font-family="sans-serif" font-size="13" lengthAdjust="spacingAndGlyphs" textLength="61" x="58.5" y="409.917">EndComm</text><line style="stroke: #A80036; stroke-width: 2.0;" x1="32.5" x2="50.5" y1="405.7734" y2="423.7734"/><line style="stroke: #A80036; stroke-width: 2.0;" x1="32.5" x2="50.5" y1="423.7734" y2="405.7734"/><line style="stroke: #A80036; stroke-width: 2.0;" x1="147.5" x2="165.5" y1="405.7734" y2="423.7734"/><line style="stroke: #A80036; stroke-width: 2.0;" x1="147.5" x2="165.5" y1="423.7734" y2="405.7734"/><!--MD5=[411aeda9a308efbec753dcdca6e4de71]
@startuml

participant Arduino
participant "Client Arduino" as AClient

AClient -> Arduino: StartComm
activate Arduino
activate AClient
AClient -> Arduino: StopReading
|||
Arduino -> AClient: Pacchetti vari
Arduino -> AClient: ReadyToRead
|||
AClient -> Arduino: Pacchetti vari
AClient -> Arduino: StopReading
|||
Arduino -> AClient: Pacchetti vari
Arduino -> AClient: ReadyToRead
|||
AClient -> Arduino: EndComm
destroy Arduino
destroy AClient

@enduml

PlantUML version 1.2019.10(Fri Sep 13 22:53:03 CEST 2019)
(GPL source distribution)
Java Runtime: OpenJDK Runtime Environment
JVM: OpenJDK 64-Bit Server VM
Java Version: 11.0.3+12-b304.56
Operating System: Windows 7
Default Encoding: Cp1252
Language: it
Country: IT
--></g></svg>